<?xml version="1.0" encoding="UTF-8"?>
<svg id="_レイヤー_1" xmlns="http://www.w3.org/2000/svg" version="1.1" viewBox="0 0 86.8 86.8">
  <!-- Generator: Adobe Illustrator 29.4.0, SVG Export Plug-In . SVG Version: 2.1.0 Build 152)  -->
  <defs>
    <style>
      .st0 {
        fill: #fff;
      }

      .st1 {
        fill: #28a5a0;
      }
    </style>
  </defs>
  <g id="_グループ_14">
    <path id="_長方形_4" class="st1" d="M43.4,0h0c24,0,43.4,19.4,43.4,43.4h0c0,24-19.4,43.4-43.4,43.4h0C19.4,86.8,0,67.4,0,43.4h0C0,19.4,19.4,0,43.4,0Z"/>
    <g id="_グループ_10">
      <path id="_パス_19" class="st0" d="M17.7,21.3h4.6c2.2,0,4.6.7,4.6,3.1s-1.3,3.1-4.2,3.1h-2v4c0,.6.4,1.1,1,1.1h.7v.5h-4.7v-.5h.6c.6,0,1.1-.3,1.1-.9v-8.7c0-.6-.4-1.1-1-1.1h-.8v-.5h.1ZM20.7,27h1.7c1.8,0,3-.8,3-2.6s-1.1-2.6-2.5-2.6h-1c-.6,0-1.1.3-1.1.9v4.3h-.1Z"/>
      <path id="_パス_20" class="st0" d="M33.7,33.4c-3.1,0-5.3-2.6-5.3-6.2s2.1-6.2,5.3-6.2,5.3,2.6,5.3,6.2-2.2,6.2-5.3,6.2ZM37.4,27c0-1.5-.5-5.5-3.7-5.5s-3.8,4.8-3.8,5.9c0,1.6.5,5.5,3.8,5.5s3.7-4.7,3.7-5.8h0Z"/>
      <path id="_パス_21" class="st0" d="M45.4,21.8h-.8c-.6,0-1.1.3-1.1.9v8.7c0,.6.4,1.1,1,1.1h1v.5h-5.1v-.5h.8c.6,0,1.1-.3,1.2-.9v-8.7c0-.6-.4-1.1-1-1.1h-1v-.5h5.1v.5h-.1Z"/>
      <path id="_パス_22" class="st0" d="M55.4,33.1l-6.8-10.4v8.5c0,.7.5,1.4,1.2,1.4h.6v.5h-4.2v-.5h.5c.7,0,1.3-.5,1.3-1.2v-8.4c0-.7-.5-1.2-1.2-1.3h-.6v-.5h3l6.1,9.5v-7.6c0-.7-.5-1.2-1.2-1.3h-.7v-.5h4.2v.5h-.6c-.6,0-1.2.4-1.2,1v10.2h-.5,0Z"/>
      <path id="_パス_23" class="st0" d="M68.7,21.3l1.1,3.1-.5.2c-.6-1-1.6-2.8-3.3-2.8s-1.1.3-1.1.9v8.8c0,.6.4,1.1,1,1.1h1v.5h-5.2v-.5h.8c.6,0,1.1-.3,1.1-.9v-8.7c0-.6-.3-1.1-.9-1.1h-.3c-1.7,0-2.7,1.8-3.3,2.8l-.5-.2,1.1-3.1h9Z"/>
    </g>
    <g id="_グループ_11">
      <path id="_パス_24" class="st0" d="M47.9,43.5h1.5v18.2h4v1.1h-4v4.2c0,1.6.8,2.2,2.5,2.2h.6v1.1h-9.1v-1.1h.6c1.7,0,2.5-.6,2.5-2.2v-4.2h-9.6v-1.3l11.1-18.1h0ZM46.4,48.2l-8.3,13.5h8.3v-13.5Z"/>
    </g>
  </g>
</svg>