<?xml version="1.0" encoding="UTF-8"?>
<svg id="_レイヤー_1" data-name="レイヤー_1" xmlns="http://www.w3.org/2000/svg" version="1.1" viewBox="0 0 86.8 86.8">
  <!-- Generator: Adobe Illustrator 29.3.1, SVG Export Plug-In . SVG Version: 2.1.0 Build 151)  -->
  <defs>
    <style>
      .st0 {
        fill: #fff;
      }

      .st1 {
        fill: #426a68;
      }
    </style>
  </defs>
  <g id="_グループ_15" data-name="グループ_15">
    <path id="_長方形_2" data-name="長方形_2" class="st1" d="M43.4,0h0c24,0,43.4,19.4,43.4,43.4h0c0,24-19.4,43.4-43.4,43.4h0C19.4,86.8,0,67.4,0,43.4h0C0,19.4,19.4,0,43.4,0Z"/>
    <g id="_グループ_4" data-name="グループ_4">
      <path id="_パス_7" data-name="パス_7" class="st0" d="M17.7,21.3h4.6c2.2,0,4.6.7,4.6,3.1s-1.3,3.1-4.2,3.1h-2v4c0,.6.4,1.1,1,1.1,0,0,.1,0,.2,0h.5v.5h-4.7v-.5h.6c.6,0,1.1-.3,1.1-.9,0,0,0-.1,0-.2v-8.5c0-.6-.4-1.1-1-1.1,0,0-.1,0-.2,0h-.6v-.5ZM20.7,27h1.7c1.8,0,3-.8,3-2.6,0-1.4-1.1-2.6-2.5-2.6-.1,0-.2,0-.3,0h-.7c-.6,0-1.1.3-1.1.9,0,0,0,.1,0,.2v4.1Z"/>
      <path id="_パス_8" data-name="パス_8" class="st0" d="M33.7,33.4c-3.1,0-5.3-2.6-5.3-6.2s2.1-6.2,5.3-6.2c3.1,0,5.3,2.6,5.3,6.2s-2.2,6.2-5.3,6.2ZM37.4,27c0-1.5-.5-5.5-3.7-5.5s-3.8,4.8-3.8,5.9c0,1.6.5,5.5,3.8,5.5s3.7-4.7,3.7-5.8Z"/>
      <path id="_パス_9" data-name="パス_9" class="st0" d="M45.4,21.8h-.8c-.6,0-1.1.3-1.1.9,0,0,0,.1,0,.2v8.5c0,.6.4,1.1,1,1.1,0,0,.1,0,.2,0h.8v.5h-5.1v-.5h.8c.6,0,1.1-.3,1.2-.9,0,0,0-.1,0-.2v-8.5c0-.6-.4-1.1-1-1.1,0,0-.1,0-.2,0h-.8v-.5h5.1v.5Z"/>
      <path id="_パス_10" data-name="パス_10" class="st0" d="M55.4,33.1l-6.8-10.4v8.5c0,.7.5,1.4,1.2,1.4,0,0,.1,0,.2,0h.4v.5h-4.2v-.5h.5c.7,0,1.3-.5,1.3-1.2,0,0,0-.2,0-.3v-8.1c0-.7-.5-1.2-1.2-1.3,0,0,0,0-.1,0h-.5v-.5h3l6.1,9.5v-7.6c0-.7-.5-1.2-1.2-1.3,0,0,0,0-.1,0h-.6v-.5h4.2v.5h-.6c-.6,0-1.2.4-1.2,1,0,0,0,.2,0,.2v10h-.5Z"/>
      <path id="_パス_11" data-name="パス_11" class="st0" d="M68.7,21.3l1.1,3.1-.5.2c-.6-1-1.6-2.8-3.3-2.8-.6,0-1.1.3-1.1.9,0,0,0,.2,0,.3v8.5c0,.6.4,1.1,1,1.1,0,0,.1,0,.2,0h.8v.5h-5.2v-.5h.8c.6,0,1.1-.3,1.1-.9,0,0,0-.1,0-.2v-8.5c0-.6-.3-1.1-.9-1.1,0,0-.2,0-.3,0-1.7,0-2.7,1.8-3.3,2.8l-.5-.2,1.1-3.1h8.8Z"/>
    </g>
    <g id="_グループ_5" data-name="グループ_5">
      <path id="_パス_12" data-name="パス_12" class="st0" d="M50.4,58.1c1.6,1.3,2.5,3.3,2.4,5.3,0,4.4-3.6,7.6-8.4,7.6s-7.1-2.2-7.1-5.1c-.1-1.1.7-2.2,1.8-2.3,0,0,.1,0,.2,0,1,0,1.8.8,1.8,1.8,0,0,0,0,0,0,0,.4,0,.8-.2,1.1,0,.3-.1.5-.1.8,0,1.4,1.5,2.4,3.2,2.4,2.8,0,5.6-2.7,5.6-6.3s-2.7-6.6-5.6-6.6-1.2.1-1.4.1c-.4,0-.7-.2-.8-.6,0,0,0,0,0-.1,0-.4.3-.8.8-.8h0c.2,0,1.3.2,1.5.2,3,0,4.9-2.7,4.9-5.6s-1.7-5.4-4.5-5.4c-1.5-.1-2.7.9-2.9,2.4,0,.2,0,.4.1.5,0,.3.1.6.1.9,0,1-.8,1.9-1.8,2,0,0,0,0,0,0-1,0-1.8-.9-1.8-1.9,0,0,0,0,0,0,0-2,2.3-5,6.9-5s7.2,2.9,7.2,6c0,1.3-.5,2.6-1.3,3.7-1.1,1.5-2.7,2.6-4.6,3,1.5.3,2.8,1,4,1.9Z"/>
    </g>
  </g>
</svg>