<?xml version="1.0" encoding="UTF-8"?>
<svg id="_レイヤー_1" data-name="レイヤー_1" xmlns="http://www.w3.org/2000/svg" version="1.1" viewBox="0 0 86.8 86.8">
  <!-- Generator: Adobe Illustrator 29.3.1, SVG Export Plug-In . SVG Version: 2.1.0 Build 151)  -->
  <defs>
    <style>
      .st0 {
        fill: #fff;
      }

      .st1 {
        fill: #426a68;
      }
    </style>
  </defs>
  <g id="_グループ_13" data-name="グループ_13">
    <path id="_長方形_3" data-name="長方形_3" class="st1" d="M43.4,0h0c24,0,43.4,19.4,43.4,43.4h0c0,24-19.4,43.4-43.4,43.4h0C19.4,86.8,0,67.4,0,43.4h0C0,19.4,19.4,0,43.4,0Z"/>
    <g id="_グループ_7" data-name="グループ_7">
      <path id="_パス_13" data-name="パス_13" class="st0" d="M17.7,21.3h4.6c2.2,0,4.6.7,4.6,3.1s-1.3,3.1-4.2,3.1h-2v4c0,.6.4,1.1,1,1.1,0,0,.1,0,.2,0h.5v.5h-4.7v-.5h.6c.6,0,1.1-.3,1.1-.9,0,0,0-.1,0-.2v-8.5c0-.6-.4-1.1-1-1.1,0,0-.1,0-.2,0h-.6v-.5ZM20.7,27h1.7c1.8,0,3-.8,3-2.6,0-1.4-1.1-2.6-2.5-2.6-.1,0-.2,0-.3,0h-.7c-.6,0-1.1.3-1.1.9,0,0,0,.1,0,.2v4.1Z"/>
      <path id="_パス_14" data-name="パス_14" class="st0" d="M33.7,33.4c-3.1,0-5.3-2.6-5.3-6.2s2.1-6.2,5.3-6.2c3.1,0,5.3,2.6,5.3,6.2s-2.2,6.2-5.3,6.2ZM37.4,27c0-1.5-.5-5.5-3.7-5.5s-3.8,4.8-3.8,5.9c0,1.6.5,5.5,3.8,5.5,3.6,0,3.7-4.7,3.7-5.8Z"/>
      <path id="_パス_15" data-name="パス_15" class="st0" d="M45.4,21.8h-.8c-.6,0-1.1.3-1.1.9,0,0,0,.1,0,.2v8.5c0,.6.4,1.1,1,1.1,0,0,.1,0,.2,0h.8v.5h-5.1v-.5h.8c.6,0,1.1-.4,1.2-.9,0,0,0-.1,0-.2v-8.5c0-.6-.4-1.1-1-1.1,0,0-.1,0-.2,0h-.8v-.5h5.1v.5Z"/>
      <path id="_パス_16" data-name="パス_16" class="st0" d="M55.4,33.1l-6.8-10.4v8.5c0,.7.5,1.4,1.2,1.4,0,0,.1,0,.2,0h.4v.5h-4.2v-.5h.5c.7,0,1.3-.5,1.3-1.2,0,0,0-.2,0-.3v-8.1c0-.7-.5-1.2-1.2-1.3,0,0,0,0-.1,0h-.5v-.5h3l6.1,9.5v-7.6c0-.7-.5-1.2-1.2-1.3,0,0,0,0-.1,0h-.6v-.5h4.2v.5h-.6c-.6,0-1.2.4-1.2,1,0,0,0,.2,0,.2v10h-.5Z"/>
      <path id="_パス_17" data-name="パス_17" class="st0" d="M68.7,21.3l1.1,3.1-.5.2c-.6-1-1.6-2.8-3.3-2.8-.6,0-1.1.3-1.1.9,0,0,0,.2,0,.2v8.5c0,.6.4,1.1,1,1.1,0,0,.1,0,.2,0h.8v.5h-5.2v-.5h.8c.6,0,1.1-.3,1.1-.9,0,0,0-.1,0-.2v-8.5c0-.6-.3-1.1-.9-1.1,0,0-.2,0-.3,0-1.7,0-2.7,1.8-3.3,2.8l-.5-.2,1.1-3.1h8.8Z"/>
    </g>
    <g id="_グループ_8" data-name="グループ_8">
      <path id="_パス_18" data-name="パス_18" class="st0" d="M51.1,70.3h-14.1v-1c.7-2.3,2.4-4.8,5.3-8,5.3-6.1,7.1-8.1,7.1-11.7.2-2.5-1.8-4.7-4.3-4.9-.2,0-.3,0-.5,0-2.5,0-4,1.5-4,2.8,0,.4.1.8.4,1.1.4.5.7,1.1.8,1.8,0,1.1-.9,2-1.9,2-1.2-.1-2.2-1.2-2-2.5,0,0,0,0,0,0,0-2.6,2.5-6.4,7.7-6.4s7.2,2.8,7.2,6.7-2.1,5.6-5.3,8.4c-1.2,1-6,5.1-7.7,9h4.9c5,0,6.2-1.9,7.3-4.9l1.1.4-1.7,7.3Z"/>
    </g>
  </g>
</svg>